<svg xmlns="http://www.w3.org/2000/svg" viewBox="0 0 500 600" fill="none" stroke="currentColor" stroke-width="1.5">
  <!-- Simplified Africa outline (approximate) -->
  <path d="M 98 82 L 88 125 L 82 185 L 78 255 L 76 330 L 76 410 L 78 490 L 82 555 L 92 585 L 108 578 L 128 550 L 155 510 L 190 465 L 230 425 L 275 388 L 320 358 L 365 332 L 408 308 L 445 278 L 475 245 L 495 208 L 502 168 L 502 128 L 492 95 L 472 78 L 442 72 L 400 74 L 355 76 L 308 78 L 258 80 L 208 82 L 148 82 L 98 82 Z" fill="#f0fdf4" stroke="#166534" stroke-width="2"/>
</svg>
